PathFileType	4	(X/Y/Z)	Walk7.trc
DataRate	CameraRate	NumFrames	NumMarkers	Units	OrigDataRate	OrigDataStartFrame	OrigNumFrames
200.000000	200.000000	6	59	mm	200.000000	507	787
Frame#	Times		LCAR		LUA1		LACR1		RTH3		RCAR		RUA1		RACR1		LTB2		RTH1		RFHD		RWRR		RTH2		T10		RPSI		RElbowM		STRN		RBack		LMT5		LLFC		C7		RASI		LTB1		RTH4		LMT1		LPSI		LTB3		LFHD		LTB4		LToe		LLMAL		LTH3		LASI		LElbowM		LTH4		CLAV		RFA1		RElbow		RBHD		LTH1		RWRU		RLFC		LCAL		LFA1		RTB2		LWRR		LTH2		LBHD		LElbow		RTB1		RMT5		RTB3		LWRU		RTB4		RMT1		RToe		RMMAL		RLMAL		RCAL		LMMAL
			X1	Y1	Z1	X2	Y2	Z2	X3	Y3	Z3	X4	Y4	Z4	X5	Y5	Z5	X6	Y6	Z6	X7	Y7	Z7	X8	Y8	Z8	X9	Y9	Z9	X10	Y10	Z10	X11	Y11	Z11	X12	Y12	Z12	X13	Y13	Z13	X14	Y14	Z14	X15	Y15	Z15	X16	Y16	Z16	X17	Y17	Z17	X18	Y18	Z18	X19	Y19	Z19	X20	Y20	Z20	X21	Y21	Z21	X22	Y22	Z22	X23	Y23	Z23	X24	Y24	Z24	X25	Y25	Z25	X26	Y26	Z26	X27	Y27	Z27	X28	Y28	Z28	X29	Y29	Z29	X30	Y30	Z30	X31	Y31	Z31	X32	Y32	Z32	X33	Y33	Z33	X34	Y34	Z34	X35	Y35	Z35	X36	Y36	Z36	X37	Y37	Z37	X38	Y38	Z38	X39	Y39	Z39	X40	Y40	Z40	X41	Y41	Z41	X42	Y42	Z42	X43	Y43	Z43	X44	Y44	Z44	X45	Y45	Z45	X46	Y46	Z46	X47	Y47	Z47	X48	Y48	Z48	X49	Y49	Z49	X50	Y50	Z50	X51	Y51	Z51	X52	Y52	Z52	X53	Y53	Z53	X54	Y54	Z54	X55	Y55	Z55	X56	Y56	Z56	X57	Y57	Z57	X58	Y58	Z58	X59	Y59	Z59

507	2.535	-435.1	764.98	-313.65	-395.25	1187.7	-258.08	-368.97	1368.1	-165.6	-346.64	555.5	190.62	-284.29	795.24	316.14	-378.59	1194.3	245.8	-373.08	1372.6	145.48	-252.55	252.16	-84.153	-345.91	725.4	216.3	-267.42	1597.5	32.593	-299.83	842.86	262.65	-291.5	643.57	184.24	-516.74	1144.1	-7.3002	-511.13	957.65	36.984	-430.87	1037.7	187.7	-246.64	1233.1	-5.5607	-498.45	1317.2	103.89	-204.17	23.989	-61.552	-272.31	477.88	-112.89	-448.35	1410.9	-4.2327	-277.03	962.95	156.38	-223.33	338.53	-27.969	-347.66	639.05	201.08	-174.12	30.905	17.662	-504.45	960.05	-52.938	-243.46	167.18	-26.269	-279.16	1595.6	-61.748	-234.51	252.38	-25.604	-105.42	26.007	-8.8616	-289.34	59.393	-50.338	-296.01	595.43	-151.93	-243.71	963.83	-130.63	-486.68	1048.4	-213.09	-310.42	677.17	-178.32	-308.45	1336	-9.0974	-396.98	927.27	297.86	-422.38	1073.3	279.24	-414.99	1538.8	66.899	-322.55	753.92	-212.06	-355.43	823.58	303.68	-357.57	468.95	176.18	-352.79	30.715	-14.914	-474.92	938.46	-310.08	-506.9	295.05	167.49	-435.83	813.89	-272.39	-254.31	691.85	-166.63	-425.83	1529.1	-73.203	-453.23	1071.3	-286.61	-415.79	315.11	119.38	-694.51	89.498	127.98	-565.11	227.06	109.47	-478	823.89	-327.75	-488.98	271.17	114.31	-666.52	76.493	63.709	-640.7	33.302	97.418	-663.61	187.53	52.162	-683.74	195.41	133.62	-736.71	235.07	90.362	-275.64	64.6	33.834
508	2.54	-422.04	765.51	-313.69	-387.58	1188.4	-258.7	-362.8	1368.6	-165.76	-337.2	556.55	190.96	-283.08	794.18	314.62	-373.67	1195	245.45	-367.21	1373.3	145.43	-251.69	252.01	-84.252	-339.54	726.77	216.27	-261.09	1598.3	31.602	-298.54	842.11	261.07	-282.59	645.28	185.16	-511.26	1145.2	-7.7365	-505.69	958.69	36.46	-426.98	1038.6	187.14	-240.89	1233.7	-5.7939	-493	1318	103.21	-204.18	23.958	-61.61	-270.24	477.91	-113.31	-442.26	1411.7	-4.5792	-271.91	963.37	156.6	-222.42	338.41	-28.254	-339.72	640.32	200.77	-174.16	30.918	17.627	-498.7	960.87	-53.528	-243.12	167.11	-26.243	-272.9	1596.1	-62.599	-233.76	252.26	-25.697	-105.46	26.002	-8.8995	-289.36	59.426	-50.37	-292.43	595.71	-152.31	-238.31	964.11	-130.72	-478.82	1048.4	-214.57	-306.41	677.09	-178.21	-302.35	1336.8	-9.5295	-393.91	927.73	297.21	-417.84	1074.2	278.62	-408.75	1539.8	66.378	-318.24	754.49	-212.38	-353.9	823.72	303.13	-346.62	470.16	176.56	-352.83	30.765	-14.986	-464.45	938.34	-311.12	-494.14	297.05	168.02	-424.03	814.39	-272.44	-250.38	692.48	-167.21	-419.63	1529.7	-73.803	-444.64	1071.6	-287.39	-402.92	316.59	120.63	-680.48	91.013	130.48	-552.21	228.26	110.6	-466.19	823.47	-328.35	-476.25	272.34	114.48	-651.87	76.565	64.692	-626.35	34.509	100.32	-650.3	188.07	52.592	-670.87	196.22	133.85	-724.17	235.49	90.218	-275.64	64.68	33.734
509	2.545	-408.82	766.06	-313.71	-379.95	1189.1	-258.95	-356.51	1369.4	-165.89	-327.99	557.52	191.25	-281.61	793.15	312.93	-368.54	1195.5	245.25	-361.64	1374.3	145.3	-250.86	251.88	-84.632	-332.8	727.99	216.2	-254.83	1599.1	30.586	-296.64	841.35	259.71	-274.32	647.15	186.12	-505.47	1146.1	-8.3164	-499.93	959.57	35.867	-422.5	1039.5	186.63	-235.06	1234.3	-5.8658	-487.33	1318.7	102.58	-204.41	23.868	-61.943	-268.15	477.85	-113.65	-436.45	1412.5	-4.9834	-266.84	963.95	156.91	-221.33	338.34	-28.457	-331.73	641.42	200.72	-174.22	30.935	17.596	-493.01	961.95	-53.781	-242.62	167.1	-26.3	-266.76	1596.7	-63.423	-232.95	252.3	-25.86	-105.48	26.002	-8.917	-289.34	59.449	-50.401	-288.78	595.84	-152.63	-232.98	964.39	-130.78	-470.92	1048.5	-216	-302.41	677.87	-178.7	-296.44	1337.3	-9.7364	-390.67	928.33	296.76	-413.13	1075	278.28	-402.41	1540.8	65.866	-313.94	754.76	-212.65	-352.02	823.92	302.85	-335.4	471.53	177.35	-352.91	30.838	-15.064	-454.08	938.2	-312.01	-481.43	298.83	168.57	-412.06	815.03	-272.63	-246.5	692.01	-166.86	-413.41	1530.3	-74.271	-436.05	1071.9	-288.56	-390.21	318.05	121.74	-665.74	92.135	132.25	-538.66	229.42	112.06	-454.08	823.41	-328.87	-463.91	273.17	114.73	-636.73	77.129	66.05	-611.28	35.605	102.98	-636.7	188.13	53.097	-657.66	196.53	133.97	-711.55	235.16	89.997	-275.62	64.754	33.641
510	2.55	-395.58	766.58	-313.79	-372.34	1189.7	-259.18	-350.42	1370	-166.22	-318.88	559.03	191.67	-280.52	792.21	311.36	-363.86	1196	245.05	-355.88	1375.1	145.17	-250.17	251.79	-84.896	-326.2	729.13	216.18	-248.53	1599.9	29.769	-295.17	840.86	258.49	-267.31	649.12	187.06	-499.56	1147.1	-8.6396	-494.46	960.72	35.314	-418.16	1040.5	186.27	-229.22	1234.8	-5.8492	-481.42	1319.5	102.16	-204.34	24.034	-62.046	-265.98	477.69	-114	-429.97	1413.4	-5.2056	-261.79	964.6	157.14	-220.31	338.2	-28.715	-323.8	642.51	201.1	-174.25	30.962	17.514	-487.72	962.96	-54.38	-242.21	167.03	-26.405	-260.49	1597.1	-64.231	-232.28	252.22	-26.061	-105.51	25.985	-8.9415	-289.37	59.447	-50.45	-285.33	596.12	-153.09	-227.6	964.45	-130.92	-462.89	1048.5	-217.56	-299.24	677.21	-178.72	-290.63	1338	-9.8355	-387.6	929.08	296.2	-408.59	1075.5	278.1	-396.17	1541.9	65.256	-309.74	755.01	-212.9	-350.54	824.13	302.22	-324.61	473.14	178.06	-353.07	30.883	-15.345	-443.5	938.07	-312.93	-468.84	300.71	169.03	-399.96	815.69	-272.77	-242.54	692.54	-167.4	-407.41	1531	-74.85	-427.44	1072.4	-289.7	-377.13	319.71	122.74	-650.83	92.78	133.49	-525.38	230.42	113.28	-441.67	823.01	-329.27	-451.45	274.66	115.61	-621.56	77.329	68.127	-595.5	36.3	105.33	-622.74	188.07	53.65	-644.42	197.06	134.27	-698.88	234.32	89.806	-275.62	64.885	33.549
511	2.555	-381.97	767.87	-313.52	-364.58	1190.5	-259.49	-344.27	1370.7	-166.34	-310.21	560.4	192.13	-279.05	791.13	309.77	-358.8	1196.6	244.85	-349.97	1375.5	145.02	-249.56	251.72	-85.275	-319.8	730.42	216.16	-242.16	1600.5	29.029	-293.96	840.05	257.74	-259.35	651.24	188.07	-493.73	1148	-8.9787	-489.03	961.84	34.76	-413.74	1041.6	185.89	-223.58	1235.4	-5.7767	-475.58	1320.3	101.58	-204.1	24.103	-61.835	-264.17	477.77	-114.4	-424.02	1414.3	-5.2666	-256.63	965.21	157.3	-219.53	337.97	-29.09	-316.21	643.79	201.52	-174.31	30.983	17.44	-482.18	964.28	-54.881	-241.89	166.96	-26.596	-254.41	1597.5	-65.219	-231.78	252.04	-26.244	-105.57	25.971	-8.9731	-289.38	59.481	-50.504	-281.99	596.33	-153.38	-222.25	964.37	-131.02	-454.98	1048.5	-219.09	-294.9	678.08	-179.24	-284.9	1338.7	-10.181	-384.6	929.62	295.91	-403.91	1076.2	277.85	-390.01	1542.8	64.589	-305.35	755.52	-213.29	-348.73	824.44	301.7	-313.61	474.4	178.3	-353.16	30.93	-15.468	-433.03	938.06	-313.67	-456.17	302.35	169.41	-388.03	816.49	-272.47	-238.7	692.24	-167.12	-401.38	1531.6	-75.455	-418.54	1072.7	-290.64	-364.42	321.23	123.29	-635.72	92.376	134.55	-511.74	231.28	114.14	-429.41	822.84	-329.79	-437.61	275.54	116.76	-606.03	77.236	70.061	-579.04	36.803	107.42	-608.68	187.75	54.07	-630.98	197.14	134.53	-686.04	233.31	89.77	-275.65	65.031	33.476
512	2.56	-368.72	768.52	-313.75	-356.9	1191	-259.96	-338.5	1371.4	-166.42	-301.33	561.43	192.53	-277.75	790.32	308.21	-353.92	1197.1	244.82	-344	1376.2	145.04	-249.07	251.65	-85.409	-313.42	731.72	216.16	-236.06	1601.3	28.046	-292.68	839.59	257.02	-251.13	653.27	189.08	-488.2	1148.8	-9.3883	-483.69	963.06	34.327	-409.43	1042.3	185.54	-217.86	1235.9	-5.7343	-469.87	1320.8	101.01	-204.24	23.897	-61.928	-262.33	477.72	-114.63	-417.61	1415.1	-5.2674	-251.6	965.91	157.43	-218.35	337.76	-29.578	-308.69	645.21	201.84	-174.4	30.992	17.365	-476.44	965.11	-55.305	-241.45	166.99	-26.845	-248.24	1598.2	-66	-231.32	251.86	-26.382	-105.64	25.961	-9.0067	-289.39	59.487	-50.534	-278.46	596.37	-153.83	-216.87	964.44	-131.14	-446.98	1048.6	-220.5	-291.1	678.76	-179.67	-278.94	1339.3	-10.373	-381.52	930.04	295.27	-399.42	1077	277.43	-383.66	1543.6	64.065	-300.62	755.66	-213.77	-347.16	824.89	301.08	-302.69	475.87	178.42	-353.2	30.998	-15.493	-422.55	938.01	-314.69	-442.9	303.76	170.49	-375.92	817.13	-272.68	-234.72	692.03	-166.82	-395.34	1532.2	-75.942	-409.85	1072.9	-291.57	-351.22	322.61	123.9	-620.2	91.855	135.08	-498.2	232.15	115.33	-417.11	822.62	-329.77	-422.9	276.67	117.59	-589.67	77.259	71.692	-562.05	37.363	109.22	-594.38	187.42	54.481	-617.07	197.17	134.71	-673.01	231.73	89.852	-275.62	65.121	33.384
